<svg xmlns="http://www.w3.org/2000/svg" width="187" height="24"><path d="M181.92 23.52v-1.58c-1.18 1.64-3.02 2.06-4.42 2.06-1.53 0-3.4-.45-5.12-2.29-1.37-1.48-2.03-3.13-2.03-5.29 0-2.71 1.05-4.61 2.19-5.78 1.21-1.22 3.08-2.03 5.12-2.03 2.28 0 3.65 1.2 4.26 1.87V9.09H187v14.43h-5.08zm-.83-9.59c-.48-.45-1.21-.93-2.29-.93-.63 0-1.49.22-2.22.93-.7.68-1.02 1.62-1.02 2.36 0 .84.35 1.74.98 2.35.54.52 1.43.97 2.29.97.83 0 1.65-.35 2.29-1 .45-.45.95-1.16.95-2.32 0-.68-.19-1.58-.98-2.36zm-18.04 2.29c0-1.06-.06-2.16-.64-2.8-.47-.55-1.11-.61-1.62-.61-.54 0-1.27.09-1.84.61-.44.42-.86 1.19-.86 2.35v7.75h-5.08V0h5.08v10.9c.38-.48.99-1.06 1.59-1.42.99-.58 2.04-.71 2.93-.71 2 0 3.33.68 4.19 1.55 1.27 1.29 1.34 2.65 1.34 4.03v9.17h-5.09v-7.3zm-18.06 5.72c-1.43 1.87-3.3 2.06-4.29 2.06-2.03 0-3.65-.68-4.99-2-1.43-1.42-2.28-3.45-2.28-5.74 0-2.46 1.01-4.45 2.31-5.71 1.4-1.36 3.28-1.94 5.03-1.94 1.93 0 3.3.87 4.22 1.87V0h5.09v23.52h-5.09v-1.58zm-.79-7.97c-.57-.62-1.37-.97-2.32-.97-1.08 0-1.81.48-2.26.93-.57.59-.98 1.49-.98 2.46 0 .74.31 1.58.98 2.25.7.71 1.53.97 2.26.97.82 0 1.65-.38 2.19-.87.67-.61 1.08-1.58 1.08-2.45 0-.81-.44-1.77-.95-2.32zm-18.14 7.97c-1.43 1.87-3.3 2.06-4.29 2.06-2.03 0-3.65-.68-4.99-2-1.43-1.42-2.29-3.45-2.29-5.74 0-2.46 1.02-4.45 2.32-5.71 1.4-1.36 3.28-1.94 5.02-1.94 1.94 0 3.31.87 4.23 1.87V0h5.09v23.52h-5.09v-1.58zm-.79-7.97c-.58-.62-1.37-.97-2.32-.97-1.08 0-1.81.48-2.26.93-.57.59-.98 1.49-.98 2.46 0 .74.31 1.58.98 2.25.7.71 1.53.97 2.26.97.82 0 1.65-.38 2.19-.87.67-.61 1.08-1.58 1.08-2.45 0-.81-.44-1.77-.95-2.32zM104.83 24c-2.13 0-4.74-.23-6.42-2.06-1.08-1.17-1.34-2.46-1.34-3.84V9.09h5.09v8.07c0 .58.09 1.48.76 2.1.51.45 1.18.55 1.78.55.63 0 1.24-.07 1.81-.62.64-.64.73-1.38.73-2.03V9.09h5.09v9.01c0 1.22-.1 2.54-1.37 3.87-1.75 1.84-4.2 2.03-6.13 2.03zm-17.48-.48h-8.83V2h8.19c1.53 0 3.34.22 4.64 1.68.74.8 1.31 2.12 1.31 4.03 0 .93-.16 1.74-.61 2.64-.44.84-.92 1.33-1.71 1.68 1.11.13 2.22.65 2.89 1.29.86.84 1.43 2.23 1.43 3.94 0 2.03-.76 3.42-1.56 4.22-1.14 1.2-3.14 2.04-5.75 2.04zm-.22-16.59c-.35-.35-1.02-.64-2.1-.64h-1.02v4.19h1.02c.57 0 1.53-.06 2.1-.67.35-.36.51-.94.51-1.42 0-.55-.19-1.1-.51-1.46zm1.43 8.42c-.67-.67-2.04-.71-3.4-.71h-1.15v4.52h1.24c1.53 0 2.8-.16 3.4-.87.26-.29.45-.77.45-1.39 0-.68-.22-1.22-.54-1.55zM62.72 0h5.09v23.52h-5.09V0zM50.71 19.68c.32.32.96.71 2.1.71.13 0 1.02-.04 1.65-.39.32-.19.67-.52.89-.97h4.87c-.23.81-.67 1.94-1.72 2.97-1.05 1.03-2.7 2-5.78 2-1.88 0-4.13-.42-5.88-2.19-.92-.94-2.1-2.71-2.1-5.46 0-2.42.89-4.35 2.13-5.58 1.18-1.16 3.02-2.09 5.82-2.09 1.65 0 3.78.35 5.46 1.96 2 1.94 2.26 4.46 2.26 6.07v.55H49.82c0 .77.29 1.8.89 2.42zm5.03-5.39c-.13-.55-.45-1.16-.83-1.55-.67-.68-1.59-.77-2.1-.77-.86 0-1.52.22-2.06.77-.35.39-.67.9-.77 1.55h5.76zm-10.36 9.23h-6.74l-3.62-4.29-3.63 4.29h-6.73l7.08-7.84-5.75-6.59h6.61l2.45 2.97 2.51-2.97h6.58l-5.88 6.59 7.12 7.84zM20.94 6c-1.59 0-2.86-1.29-2.86-2.9 0-1.62 1.27-2.91 2.86-2.91 1.59 0 2.86 1.29 2.86 2.91 0 1.61-1.27 2.9-2.86 2.9zM9.12 16.39H5.66v7.13H.16V2h8.77c1.84 0 3.75.35 5.37 1.93 1.65 1.62 1.97 3.42 1.97 5.23 0 1.71-.22 3.71-1.87 5.36-1.66 1.64-3.63 1.87-5.28 1.87zm.76-9.1c-.63-.68-1.65-.78-2.35-.78H5.66v5.36H7.5c.57 0 1.65-.06 2.32-.68.67-.58.7-1.45.7-1.97 0-.58-.06-1.35-.64-1.93zm13.61 16.23H18.4V9.09h5.09v14.43z" fill="#FFF"/></svg>